PathFileType	4	(X/Y/Z)	/Users/rkoike/Documents/python/sports2d/webcam_20250606_145141/webcam_20250606_145141_px_person01.trc
DataRate	CameraRate	NumFrames	NumMarkers	Units	OrigDataRate	OrigDataStartFrame	OrigNumFrames
30	30	5	22	m	30	3019	4026
Frame#	Time	Hip			RHip			RKnee			RAnkle			RBigToe			RSmallToe			RHeel			LHip			LKnee			LAnkle			LBigToe			LSmallToe			LHeel			Neck			Head			Nose			RShoulder			RElbow			RWrist			LShoulder			LElbow			LWrist			
		X1	Y1	Z1	X2	Y2	Z2	X3	Y3	Z3	X4	Y4	Z4	X5	Y5	Z5	X6	Y6	Z6	X7	Y7	Z7	X8	Y8	Z8	X9	Y9	Z9	X10	Y10	Z10	X11	Y11	Z11	X12	Y12	Z12	X13	Y13	Z13	X14	Y14	Z14	X15	Y15	Z15	X16	Y16	Z16	X17	Y17	Z17	X18	Y18	Z18	X19	Y19	Z19	X20	Y20	Z20	X21	Y21	Z21	X22	Y22	Z22
3019	100.6583354037267	578.3638813800097	724.7222685925765	0.0	469.6142148033932	718.1214334828219	0.0	334.25254084556235	726.6796173911728	0.0	335.4663252724955	690.6413780432192	0.0	1135.5714668227663	293.9095748762961	0.0	1249.8014322916667	114.45313072204588	0.0			0.0	703.7112999190219	718.6322701705618	0.0	872.5444569304672	699.9000040602945	0.0	965.5938978346273	643.7387832837801	0.0	1210.2476546499465	390.76007607248084	0.0	1249.801432291667	144.36523938179016	0.0	1173.6548700871806	503.36829283057574	0.0	571.4156855067653	394.19136563551825	0.0	526.5125446789649	115.54655708899853	0.0	507.35487270037953	276.5243121460485	0.0	411.03531946018836	469.9250150008454	0.0	337.29165475061205	698.8954558338613	0.0	286.01130798509774	716.4627664308704	0.0	774.174369076225	458.03068563787036	0.0	989.8601184522613	708.4179880351704	0.0	853.9660742010757	622.8333335089318	0.0
3020	100.69167701863353	581.8834426902608	720.2740876667681	0.0	465.88297465264395	725.6980757194692	0.0	331.1130527552522	713.5031234287043	0.0	335.4663252724955	690.6413780432192	0.0	1135.5714668227663	293.9095748762961	0.0	1249.8014322916667	114.45313072204588	0.0			0.0	700.0941460165751	719.2717681683122	0.0	873.8332269310412	693.541850407676	0.0	965.5938978346273	643.7387832837801	0.0	1210.2476546499465	390.76007607248084	0.0	1249.801432291667	144.36523938179016	0.0	1173.6548700871806	503.36829283057574	0.0	569.0243082396756	396.5906742505835	0.0	523.585490092816	116.38853857908683	0.0	504.074532979016	278.67591895893133	0.0	409.2754597522222	473.7612318343607	0.0	335.7314936535329	700.4574460299141	0.0	296.73549320400116	712.2669283869521	0.0	767.3291153981271	457.255725134226	0.0	988.5798512648838	705.1053788743811	0.0	879.1530552126238	633.5392728662844	0.0
3021	100.72501863354036	581.0391838350374	716.8604724705542	0.0	457.053734887377	727.9306410643125	0.0	321.488890242758	703.5675445150439	0.0	335.4663252724955	690.6413780432192	0.0	1135.5714668227663	293.9095748762961	0.0	1249.8014322916667	114.4531307220459	0.0			0.0	700.1112144158492	716.7069843266745	0.0	854.0801007143347	686.7316423044589	0.0	965.5938978346273	643.7387832837801	0.0	1210.2476546499465	390.76007607248084	0.0	1249.801432291667	144.36523938179016	0.0	1173.6548700871806	503.36829283057574	0.0	565.6569662638885	398.87121525407736	0.0	522.1433085265056	117.96469018526808	0.0	500.6216389684304	280.54469225610165	0.0	407.5588714227422	476.1374060330147	0.0	334.7695086441175	699.5143133741911	0.0	295.09766488911345	711.2582847198696	0.0	759.4680928815693	457.6374885652253	0.0	985.4810748351462	702.3447508409622	0.0	887.9173891791975	642.7461838766586	0.0
3022	100.75836024844719	577.7024178868245	713.3369024708854	0.0	449.14541804105727	723.093443456841	0.0	319.6464192144589	700.1541571933101	0.0	335.4663252724955	690.6413780432192	0.0	1135.5714668227663	293.9095748762961	0.0	1249.8014322916667	114.45313072204588	0.0			0.0	701.9804161884666	708.9460281167605	0.0	835.216677371336	683.9080281721249	0.0	965.5938978346273	643.7387832837801	0.0	1210.2476546499465	390.76007607248084	0.0	1249.801432291667	144.36523938179016	0.0	1173.6548700871806	503.36829283057574	0.0	563.0757068453916	399.49919404212955	0.0	519.2192885695123	120.1523050614755	0.0	496.5124322322956	281.4706911763124	0.0	405.55152509574293	476.160255608126	0.0	335.2517348267518	697.0661780493259	0.0	279.32507580297084	711.692881777899	0.0	752.5124630376508	456.1897414002044	0.0	984.2093781567849	699.9761855615167	0.0	882.0091659639569	642.6026610096809	0.0
3023	100.79170186335404	577.3390440097288	706.3865432747399	0.0	446.213214086562	711.9306984135204	0.0	335.03160090967987	703.8712019418119	0.0	335.4663252724955	690.6413780432192	0.0	1135.5714668227663	293.9095748762961	0.0	1249.8014322916667	114.45313072204588	0.0			0.0	705.2256812249439	695.8866416672727	0.0	832.0441927659189	687.4509796411078	0.0	965.5938978346273	643.7387832837801	0.0	1210.2476546499465	390.76007607248084	0.0	1249.801432291667	144.36523938179016	0.0	1173.6548700871806	503.36829283057574	0.0	561.4001119552735	400.35972985619657	0.0	515.7890495718293	122.691345974561	0.0	489.7463245297795	281.2417899252913	0.0	402.1741047472995	476.19855972300013	0.0	333.4521155486385	698.6690289991718	0.0	261.6149975187486	710.7624340317511	0.0	747.6289385051898	454.24138949250005	0.0	983.22845482937	697.0924292603506	0.0	871.8181812463879	635.7169008768518	0.0
